<svg width="25" height="19" viewBox="0 0 25 19" fill="none" xmlns="http://www.w3.org/2000/svg">
<path d="M24.9968 18.7094L23.7214 10.9594C23.7024 10.8375 23.5945 10.75 23.4708 10.75H15.1713C15.0476 10.75 14.9397 10.8375 14.9207 10.9594L13.6453 18.7094C13.6421 18.7219 13.6421 18.7375 13.6421 18.75C13.6421 18.8875 13.7563 19 13.8959 19H24.7461C24.7588 19 24.7747 19 24.7874 18.9969C24.9238 18.975 25.019 18.8469 24.9968 18.7094ZM10.0793 10.9594C10.0603 10.8375 9.95239 10.75 9.82866 10.75H1.52918C1.40545 10.75 1.29759 10.8375 1.27855 10.9594L0.00317253 18.7094C-4.8457e-08 18.7219 0 18.7375 0 18.75C0 18.8875 0.114213 19 0.253807 19H11.104C11.1167 19 11.1326 19 11.1453 18.9969C11.2849 18.975 11.3769 18.8469 11.3547 18.7094L10.0793 10.9594ZM7.10659 8.25H17.9568C17.9695 8.25 17.9854 8.25 17.9981 8.24687C18.1377 8.225 18.2297 8.09688 18.2075 7.95938L16.9321 0.209375C16.913 0.0874999 16.8052 0 16.6814 0H8.38196C8.25823 0 8.15036 0.0874999 8.13133 0.209375L6.85595 7.95938C6.85278 7.97188 6.85278 7.9875 6.85278 8C6.85278 8.1375 6.96699 8.25 7.10659 8.25Z" fill="#FFD700"/>
</svg>
